<?xml version="1.0" encoding="UTF-8" standalone="no"?>
<!DOCTYPE svg PUBLIC "-//W3C//DTD SVG 1.1//EN" "http://www.w3.org/Graphics/SVG/1.1/DTD/svg11.dtd">
<!-- Generated by Microsoft Visio, SVG Export single-sign-on-with-spring-saml-sm.svg Page-1 -->
<svg xmlns="http://www.w3.org/2000/svg" xmlns:xlink="http://www.w3.org/1999/xlink" xmlns:ev="http://www.w3.org/2001/xml-events"
		xmlns:v="http://schemas.microsoft.com/visio/2003/SVGExtensions/" width="11.6929in" height="8.26772in"
		viewBox="0 0 841.89 595.276" xml:space="preserve" color-interpolation-filters="sRGB" class="st25">
	<v:documentProperties v:langID="1033" v:metric="true" v:viewMarkup="false">
		<v:userDefs>
			<v:ud v:nameU="msvSubprocessMaster" v:prompt="" v:val="VT4(Rectangle)"/>
			<v:ud v:nameU="msvNoAutoConnect" v:val="VT0(1):26"/>
		</v:userDefs>
	</v:documentProperties>

	<style type="text/css">
	<![CDATA[
		.st1 {visibility:visible}
		.st2 {fill:#bdd0e9;fill-opacity:0.22;filter:url(#filter_2);stroke:#bdd0e9;stroke-opacity:0.22}
		.st3 {fill:#fbe5d5;stroke:#c7c8c8;stroke-width:0.25}
		.st4 {fill:#000000;font-family:Calibri;font-size:2.50001em}
		.st5 {fill:#ffffff}
		.st6 {stroke:#4a80b1;stroke-linecap:butt;stroke-width:1.25}
		.st7 {fill:#000000;font-family:Calibri;font-size:1.99999em}
		.st8 {marker-end:url(#mrkr4-17);stroke:#70ad47;stroke-linecap:round;stroke-linejoin:round;stroke-width:2}
		.st9 {fill:#70ad47;fill-opacity:1;stroke:#70ad47;stroke-opacity:1;stroke-width:0.52631578947368}
		.st10 {fill:#ffffff;stroke:none;stroke-linecap:butt;stroke-width:7.2}
		.st11 {fill:#61973d;font-family:Calibri;font-size:1.5em}
		.st12 {marker-end:url(#mrkr4-25);stroke:#ed7d31;stroke-linecap:round;stroke-linejoin:round;stroke-width:2.25}
		.st13 {fill:#ed7d31;fill-opacity:1;stroke:#ed7d31;stroke-opacity:1;stroke-width:0.55555555555556}
		.st14 {marker-end:url(#mrkr4-31);stroke:#ed7d31;stroke-linecap:round;stroke-linejoin:round;stroke-width:2}
		.st15 {fill:#ed7d31;fill-opacity:1;stroke:#ed7d31;stroke-opacity:1;stroke-width:0.52631578947368}
		.st16 {fill:#5b9bd5;fill-opacity:0.22;filter:url(#filter_2);stroke:#5b9bd5;stroke-opacity:0.22}
		.st17 {fill:#5b9bd5;stroke:#c7c8c8;stroke-width:0.25}
		.st18 {fill:#ffffff;font-family:Calibri;font-size:2.50001em}
		.st19 {stroke:#fec000;stroke-dasharray:14,10;stroke-linecap:round;stroke-linejoin:round;stroke-width:2}
		.st20 {fill:none;stroke:none;stroke-width:0.25}
		.st21 {fill:#5b9bd5;font-family:Calibri;font-size:1.66667em}
		.st22 {fill:#7f7f7f;font-family:Calibri;font-size:1.66667em}
		.st23 {fill:#000000;stroke:#c7c8c8;stroke-width:0.25}
		.st24 {fill:#ffffff;font-family:Calibri;font-size:1.16666em;font-weight:bold}
		.st25 {fill:none;fill-rule:evenodd;font-size:12px;overflow:visible;stroke-linecap:square;stroke-miterlimit:3}
	]]>
	</style>

	<defs id="Markers">
		<g id="lend4">
			<path d="M 2 1 L 0 0 L 2 -1 L 2 1 " style="stroke:none"/>
		</g>
		<marker id="mrkr4-17" class="st9" v:arrowType="4" v:arrowSize="1" v:setback="3.8" refX="-3.8" orient="auto"
				markerUnits="strokeWidth" overflow="visible">
			<use xlink:href="#lend4" transform="scale(-1.9,-1.9) "/>
		</marker>
		<marker id="mrkr4-25" class="st13" v:arrowType="4" v:arrowSize="1" v:setback="3.6" refX="-3.6" orient="auto"
				markerUnits="strokeWidth" overflow="visible">
			<use xlink:href="#lend4" transform="scale(-1.8,-1.8) "/>
		</marker>
		<marker id="mrkr4-31" class="st15" v:arrowType="4" v:arrowSize="1" v:setback="3.8" refX="-3.8" orient="auto"
				markerUnits="strokeWidth" overflow="visible">
			<use xlink:href="#lend4" transform="scale(-1.9,-1.9) "/>
		</marker>
	</defs>
	<defs id="Filters">
		<filter id="filter_2">
			<feGaussianBlur stdDeviation="2"/>
		</filter>
	</defs>
	<g v:mID="0" v:index="1" v:groupContext="foregroundPage">
		<v:userDefs>
			<v:ud v:nameU="msvThemeOrder" v:val="VT0(0):26"/>
		</v:userDefs>
		<title>Page-1</title>
		<v:pageProperties v:drawingScale="0.0393701" v:pageScale="0.0393701" v:drawingUnits="24" v:shadowOffsetX="8.50394"
				v:shadowOffsetY="-8.50394"/>
		<v:layer v:name="Network" v:index="0"/>
		<v:layer v:name="Connector" v:index="1"/>
		<g id="shape1-1" v:mID="1" v:groupContext="shape" transform="translate(46.3178,-58.1761)">
			<title>Rectangle</title>
			<desc>Browser</desc>
			<v:userDefs>
				<v:ud v:nameU="visVersion" v:val="VT0(15):26"/>
			</v:userDefs>
			<v:textBlock v:margins="rect(4,4,4,4)" v:tabSpace="42.5197"/>
			<v:textRect cx="286.396" cy="502.89" width="572.8" height="184.772"/>
			<g id="shadow1-2" v:groupContext="shadow" v:shadowOffsetX="0.345598" v:shadowOffsetY="-1.97279" v:shadowType="1"
					transform="matrix(1,0,0,1,0.345598,1.97279)" class="st1">
				<rect x="0" y="410.504" width="572.792" height="184.772" class="st2"/>
			</g>
			<rect x="0" y="410.504" width="572.792" height="184.772" class="st3"/>
			<text x="235.82" y="511.89" class="st4" v:langID="2057"><v:paragraph v:horizAlign="1"/><v:tabList/>Browser</text>		</g>
		<g id="shape4-7" v:mID="4" v:groupContext="shape" v:layerMember="0" transform="translate(694.593,-410.12)">
			<title>Datastore</title>
			<desc>LDAP</desc>
			<v:custProps>
				<v:cp v:nameU="Manufacturer" v:lbl="Manufacturer" v:type="0" v:sortKey="1" v:invis="false" v:ask="false"
						v:langID="1033" v:val="VT4()"/>
				<v:cp v:nameU="ProductNumber" v:lbl="Product Number" v:type="0" v:sortKey="1" v:invis="false" v:ask="false"
						v:langID="1033" v:val="VT4()"/>
				<v:cp v:nameU="PartNumber" v:lbl="Part Number" v:type="0" v:sortKey="1" v:invis="false" v:ask="false"
						v:langID="1033" v:val="VT4()"/>
				<v:cp v:nameU="ProductDescription" v:lbl="Product Description" v:type="0" v:sortKey="1" v:invis="false"
						v:ask="false" v:langID="1033" v:val="VT4()"/>
				<v:cp v:nameU="AssetNumber" v:lbl="Asset Number" v:type="0" v:sortKey="1" v:invis="false" v:ask="false"
						v:langID="1033" v:val="VT4()"/>
				<v:cp v:nameU="SerialNumber" v:lbl="Serial Number" v:type="0" v:sortKey="1" v:invis="false" v:ask="false"
						v:langID="1033" v:val="VT4()"/>
				<v:cp v:nameU="Location" v:lbl="Location" v:type="0" v:sortKey="1" v:invis="false" v:ask="false" v:langID="1033"
						v:val="VT4()"/>
				<v:cp v:nameU="Building" v:lbl="Building" v:type="0" v:sortKey="1" v:invis="false" v:ask="false" v:langID="1033"
						v:val="VT4()"/>
				<v:cp v:nameU="Room" v:lbl="Room" v:type="0" v:sortKey="1" v:invis="false" v:ask="false" v:langID="1033"
						v:val="VT4()"/>
				<v:cp v:nameU="Department" v:lbl="Department" v:type="0" v:sortKey="1" v:invis="false" v:ask="false"
						v:langID="1033" v:val="VT4()"/>
			</v:custProps>
			<v:userDefs>
				<v:ud v:nameU="visDescription"
						v:val="VT4(Use to add a a database, data source, or data storage device to your system diagram.)"/>
				<v:ud v:nameU="visVersion" v:val="VT0(15):26"/>
			</v:userDefs>
			<v:textBlock v:margins="rect(0,0,0,0)" v:tabSpace="42.5197"/>
			<v:textRect cx="54.5539" cy="547.541" width="109.11" height="68.1923"/>
			<path d="M0 499.81 L0 581.64 A54.5539 13.6385 -180 1 0 109.11 581.64 L109.11 499.81 A54.5539 13.6385 -180 0 0 -0 499.81
						 Z" class="st5"/>
			<path d="M0 499.81 L0 581.64 A54.5539 13.6385 -180 1 0 109.11 581.64 L109.11 499.81 A54.5539 13.6385 -180 0 0 -0 499.81"
					class="st6"/>
			<path d="M0 499.81 A54.5539 13.6385 -180 1 0 109.11 499.81" class="st6"/>
			<text x="28.98" y="554.74" class="st7" v:langID="2057"><v:paragraph v:horizAlign="1"/><v:tabList/>LDAP</text>		</g>
		<g id="shape5-12" v:mID="5" v:groupContext="shape" v:layerMember="1" transform="translate(591.394,-457.587)">
			<title>Dynamic connector</title>
			<desc>LDAP SYNC</desc>
			<v:textBlock v:margins="rect(4,4,4,4)" v:tabSpace="42.5197"/>
			<v:textRect cx="51.5993" cy="588.189" width="92.76" height="29.6036"/>
			<path d="M0 588.19 L95.6 588.19" class="st8"/>
			<rect v:rectContext="textBkgnd" x="11.2575" y="577.389" width="80.6836" height="21.5999" class="st10"/>
			<text x="11.26" y="593.59" class="st11" v:langID="2057"><v:paragraph v:horizAlign="1"/><v:tabList/>LDAP SYNC</text>		</g>
		<g id="shape12-20" v:mID="12" v:groupContext="shape" v:layerMember="1" transform="translate(66.9469,-242.948)">
			<title>Dynamic connector.12</title>
			<path d="M7.09 595.28 L7.09 455.56" class="st12"/>
		</g>
		<g id="shape14-26" v:mID="14" v:groupContext="shape" v:layerMember="1" transform="translate(122.378,-390.765)">
			<title>Dynamic connector.14</title>
			<path d="M7.09 595.28 L7.09 735.49" class="st14"/>
		</g>
		<g id="shape15-32" v:mID="15" v:groupContext="shape" v:layerMember="1" transform="translate(565.831,-242.948)">
			<title>Dynamic connector.15</title>
			<path d="M7.09 595.28 L7.09 455.56" class="st12"/>
		</g>
		<g id="shape16-37" v:mID="16" v:groupContext="shape" v:layerMember="1" transform="translate(505.36,-390.765)">
			<title>Dynamic connector.16</title>
			<path d="M7.09 595.28 L7.09 735.49" class="st14"/>
		</g>
		<g id="shape17-42" v:mID="17" v:groupContext="shape" v:layerMember="1" transform="translate(443.209,-242.948)">
			<title>Dynamic connector.17</title>
			<path d="M7.09 595.28 L7.09 455.56" class="st12"/>
		</g>
		<g id="shape18-47" v:mID="18" v:groupContext="shape" v:layerMember="1" transform="translate(370.98,-390.765)">
			<title>Dynamic connector.18</title>
			<path d="M7.09 595.28 L7.09 735.49" class="st14"/>
		</g>
		<g id="shape19-52" v:mID="19" v:groupContext="shape" v:layerMember="1" transform="translate(196.287,-242.948)">
			<title>Dynamic connector.19</title>
			<path d="M7.09 595.28 L7.09 455.56" class="st12"/>
		</g>
		<g id="shape20-57" v:mID="20" v:groupContext="shape" v:layerMember="1" transform="translate(270.196,-390.765)">
			<title>Dynamic connector.20</title>
			<path d="M7.09 595.28 L7.09 735.49" class="st14"/>
		</g>
		<g id="shape21-62" v:mID="21" v:groupContext="shape" transform="translate(46.3178,-390.765)">
			<title>Rectangle.21</title>
			<desc>SP</desc>
			<v:userDefs>
				<v:ud v:nameU="visVersion" v:val="VT0(15):26"/>
			</v:userDefs>
			<v:textBlock v:margins="rect(4,4,4,4)" v:tabSpace="42.5197"/>
			<v:textRect cx="120.102" cy="521.367" width="240.21" height="147.817"/>
			<g id="shadow21-63" v:groupContext="shadow" v:shadowOffsetX="0.345598" v:shadowOffsetY="-1.97279" v:shadowType="1"
					transform="matrix(1,0,0,1,0.345598,1.97279)" class="st1">
				<rect x="0" y="447.458" width="240.203" height="147.817" class="st16"/>
			</g>
			<rect x="0" y="447.458" width="240.203" height="147.817" class="st17"/>
			<text x="105.46" y="530.37" class="st18" v:langID="2057"><v:paragraph v:horizAlign="1"/><v:tabList/>SP</text>		</g>
		<g id="shape22-68" v:mID="22" v:groupContext="shape" transform="translate(351.191,-390.765)">
			<title>Rectangle.22</title>
			<desc>IDP</desc>
			<v:userDefs>
				<v:ud v:nameU="visVersion" v:val="VT0(15):26"/>
			</v:userDefs>
			<v:textBlock v:margins="rect(4,4,4,4)" v:tabSpace="42.5197"/>
			<v:textRect cx="120.102" cy="521.367" width="240.21" height="147.817"/>
			<g id="shadow22-69" v:groupContext="shadow" v:shadowOffsetX="0.345598" v:shadowOffsetY="-1.97279" v:shadowType="1"
					transform="matrix(1,0,0,1,0.345598,1.97279)" class="st1">
				<rect x="0" y="447.458" width="240.203" height="147.817" class="st16"/>
			</g>
			<rect x="0" y="447.458" width="240.203" height="147.817" class="st17"/>
			<text x="99.34" y="530.37" class="st18" v:langID="2057"><v:paragraph v:horizAlign="1"/><v:tabList/>IDP</text>		</g>
		<g id="shape27-74" v:mID="27" v:groupContext="shape" transform="translate(147.942,-95.1304)">
			<title>Sheet.27</title>
			<path d="M0 447.46 A250.917 315.743 180 0 0 424.98 447.46" class="st19"/>
		</g>
		<g id="shape28-77" v:mID="28" v:groupContext="shape" transform="translate(203.374,-205.993)">
			<title>Sheet.28</title>
			<path d="M-0 558.32 A103.144 78.9357 180 0 0 174.69 558.32" class="st19"/>
		</g>
		<g id="shape31-80" v:mID="31" v:groupContext="shape" transform="translate(252.112,-69.0571)">
			<title>Sheet.31</title>
			<desc>redirect</desc>
			<v:textBlock v:margins="rect(4,4,4,4)" v:tabSpace="42.5197"/>
			<v:textRect cx="99.0787" cy="582.239" width="198.16" height="26.0733"/>
			<rect x="0" y="569.202" width="198.157" height="26.0733" class="st20"/>
			<text x="67.03" y="588.24" class="st21" v:langID="2057"><v:paragraph v:horizAlign="1"/><v:tabList/>redirect</text>		</g>
		<g id="shape32-83" v:mID="32" v:groupContext="shape" transform="translate(233.635,-179.92)">
			<title>Sheet.32</title>
			<desc>redirect</desc>
			<v:textBlock v:margins="rect(4,4,4,4)" v:tabSpace="42.5197"/>
			<v:textRect cx="99.0787" cy="582.239" width="198.16" height="26.0733"/>
			<rect x="0" y="569.202" width="198.157" height="26.0733" class="st20"/>
			<text x="67.03" y="588.24" class="st21" v:langID="2057"><v:paragraph v:horizAlign="1"/><v:tabList/>redirect</text>		</g>
		<g id="shape33-86" v:mID="33" v:groupContext="shape" transform="translate(-439.737,389.282) rotate(-90)">
			<title>Sheet.33</title>
			<desc>/saml/login</desc>
			<v:textBlock v:margins="rect(4,4,4,4)" v:tabSpace="42.5197"/>
			<v:textRect cx="99.0787" cy="582.239" width="198.16" height="26.0733"/>
			<rect x="0" y="569.202" width="198.157" height="26.0733" class="st20"/>
			<text x="52.55" y="588.24" class="st22" v:langID="2057"><v:paragraph v:horizAlign="1"/><v:tabList/>/saml/login</text>		</g>
		<g id="shape34-89" v:mID="34" v:groupContext="shape" transform="translate(-495.169,352.328) rotate(-90)">
			<title>Sheet.34</title>
			<desc>/</desc>
			<v:textBlock v:margins="rect(4,4,4,4)" v:tabSpace="42.5197"/>
			<v:textRect cx="73.9087" cy="582.239" width="147.82" height="26.0733"/>
			<rect x="0" y="569.202" width="147.817" height="26.0733" class="st20"/>
			<text x="70.05" y="588.24" class="st22" v:langID="2057"><v:paragraph v:horizAlign="1"/><v:tabList/>/</text>		</g>
		<g id="shape35-92" v:mID="35" v:groupContext="shape" transform="translate(3.71507,384.191) rotate(-90)">
			<title>Sheet.35</title>
			<desc>https://idp/login</desc>
			<v:textBlock v:margins="rect(4,4,4,4)" v:tabSpace="42.5197"/>
			<v:textRect cx="99.0787" cy="582.239" width="198.16" height="26.0733"/>
			<rect x="0" y="569.202" width="198.157" height="26.0733" class="st20"/>
			<text x="31.07" y="588.24" class="st22" v:langID="2057"><v:paragraph v:horizAlign="1"/><v:tabList/>https://idp/login</text>		</g>
		<g id="shape36-95" v:mID="36" v:groupContext="shape" transform="translate(-59.3126,377.498) rotate(-90)">
			<title>Sheet.36</title>
			<desc>Login page</desc>
			<v:textBlock v:margins="rect(4,4,4,4)" v:tabSpace="42.5197"/>
			<v:textRect cx="99.0787" cy="582.239" width="198.16" height="26.0733"/>
			<rect x="0" y="569.202" width="198.157" height="26.0733" class="st20"/>
			<text x="55.36" y="588.24" class="st22" v:langID="2057"><v:paragraph v:horizAlign="1"/><v:tabList/>Login page</text>		</g>
		<g id="shape37-98" v:mID="37" v:groupContext="shape" transform="translate(-122.34,377.498) rotate(-90)">
			<title>Sheet.37</title>
			<desc>Post credentials</desc>
			<v:textBlock v:margins="rect(4,4,4,4)" v:tabSpace="42.5197"/>
			<v:textRect cx="99.0787" cy="582.239" width="198.16" height="26.0733"/>
			<rect x="0" y="569.202" width="198.157" height="26.0733" class="st20"/>
			<text x="34.3" y="588.24" class="st22" v:langID="2057"><v:paragraph v:horizAlign="1"/><v:tabList/>Post credentials</text>		</g>
		<g id="shape38-101" v:mID="38" v:groupContext="shape" transform="translate(-192.815,384.191) rotate(-90)">
			<title>Sheet.38</title>
			<desc>Post SAML</desc>
			<v:textBlock v:margins="rect(4,4,4,4)" v:tabSpace="42.5197"/>
			<v:textRect cx="99.0787" cy="582.239" width="198.16" height="26.0733"/>
			<rect x="0" y="569.202" width="198.157" height="26.0733" class="st20"/>
			<text x="55.98" y="588.24" class="st22" v:langID="2057"><v:paragraph v:horizAlign="1"/><v:tabList/>Post SAML</text>		</g>
		<g id="shape39-104" v:mID="39" v:groupContext="shape" transform="translate(-365.828,377.498) rotate(-90)">
			<title>Sheet.39</title>
			<desc>/saml/SSO</desc>
			<v:textBlock v:margins="rect(4,4,4,4)" v:tabSpace="42.5197"/>
			<v:textRect cx="99.0787" cy="582.239" width="198.16" height="26.0733"/>
			<rect x="0" y="569.202" width="198.157" height="26.0733" class="st20"/>
			<text x="56.56" y="588.24" class="st22" v:langID="2057"><v:paragraph v:horizAlign="1"/><v:tabList/>/saml/SSO</text>		</g>
		<g id="shape40-107" v:mID="40" v:groupContext="shape" transform="translate(-291.92,384.191) rotate(-90)">
			<title>Sheet.40</title>
			<desc>Success page</desc>
			<v:textBlock v:margins="rect(4,4,4,4)" v:tabSpace="42.5197"/>
			<v:textRect cx="99.0787" cy="582.239" width="198.16" height="26.0733"/>
			<rect x="0" y="569.202" width="198.157" height="26.0733" class="st20"/>
			<text x="45.99" y="588.24" class="st22" v:langID="2057"><v:paragraph v:horizAlign="1"/><v:tabList/>Success page</text>		</g>
		<g id="shape41-110" v:mID="41" v:groupContext="shape" transform="translate(42.5197,-279.902)">
			<title>Circle</title>
			<desc>1</desc>
			<v:userDefs>
				<v:ud v:nameU="visVersion" v:val="VT0(15):26"/>
			</v:userDefs>
			<v:textBlock v:margins="rect(4,4,4,4)" v:tabSpace="42.5197"/>
			<v:textRect cx="13.0367" cy="582.239" width="22.82" height="19.555"/>
			<g id="shadow41-111" v:groupContext="shadow" v:shadowOffsetX="0.345598" v:shadowOffsetY="-1.97279" v:shadowType="1"
					transform="matrix(1,0,0,1,0.345598,1.97279)" class="st1">
				<path d="M0 582.24 A13.0367 13.0367 0 0 1 26.07 582.24 A13.0367 13.0367 0 1 1 0 582.24 Z" class="st16"/>
			</g>
			<path d="M0 582.24 A13.0367 13.0367 0 0 1 26.07 582.24 A13.0367 13.0367 0 1 1 0 582.24 Z" class="st23"/>
			<text x="9.49" y="586.44" class="st24" v:langID="2057"><v:paragraph v:horizAlign="1"/><v:tabList/>1</text>		</g>
		<g id="shape43-116" v:mID="43" v:groupContext="shape" transform="translate(97.9512,-279.902)">
			<title>Circle.43</title>
			<desc>2</desc>
			<v:userDefs>
				<v:ud v:nameU="visVersion" v:val="VT0(15):26"/>
			</v:userDefs>
			<v:textBlock v:margins="rect(4,4,4,4)" v:tabSpace="42.5197"/>
			<v:textRect cx="13.0367" cy="582.239" width="22.82" height="19.555"/>
			<g id="shadow43-117" v:groupContext="shadow" v:shadowOffsetX="0.345598" v:shadowOffsetY="-1.97279" v:shadowType="1"
					transform="matrix(1,0,0,1,0.345598,1.97279)" class="st1">
				<path d="M0 582.24 A13.0367 13.0367 0 0 1 26.07 582.24 A13.0367 13.0367 0 1 1 0 582.24 Z" class="st16"/>
			</g>
			<path d="M0 582.24 A13.0367 13.0367 0 0 1 26.07 582.24 A13.0367 13.0367 0 1 1 0 582.24 Z" class="st23"/>
			<text x="9.49" y="586.44" class="st24" v:langID="2057"><v:paragraph v:horizAlign="1"/><v:tabList/>2</text>		</g>
		<g id="shape44-122" v:mID="44" v:groupContext="shape" transform="translate(166.419,-279.902)">
			<title>Circle.44</title>
			<desc>6</desc>
			<v:userDefs>
				<v:ud v:nameU="visVersion" v:val="VT0(15):26"/>
			</v:userDefs>
			<v:textBlock v:margins="rect(4,4,4,4)" v:tabSpace="42.5197"/>
			<v:textRect cx="13.0367" cy="582.239" width="22.82" height="19.555"/>
			<g id="shadow44-123" v:groupContext="shadow" v:shadowOffsetX="0.345598" v:shadowOffsetY="-1.97279" v:shadowType="1"
					transform="matrix(1,0,0,1,0.345598,1.97279)" class="st1">
				<path d="M0 582.24 A13.0367 13.0367 0 0 1 26.07 582.24 A13.0367 13.0367 0 1 1 0 582.24 Z" class="st16"/>
			</g>
			<path d="M0 582.24 A13.0367 13.0367 0 0 1 26.07 582.24 A13.0367 13.0367 0 1 1 0 582.24 Z" class="st23"/>
			<text x="9.49" y="586.44" class="st24" v:langID="2057"><v:paragraph v:horizAlign="1"/><v:tabList/>6</text>		</g>
		<g id="shape45-128" v:mID="45" v:groupContext="shape" transform="translate(245.769,-279.902)">
			<title>Circle.45</title>
			<desc>7</desc>
			<v:userDefs>
				<v:ud v:nameU="visVersion" v:val="VT0(15):26"/>
			</v:userDefs>
			<v:textBlock v:margins="rect(4,4,4,4)" v:tabSpace="42.5197"/>
			<v:textRect cx="13.0367" cy="582.239" width="22.82" height="19.555"/>
			<g id="shadow45-129" v:groupContext="shadow" v:shadowOffsetX="0.345598" v:shadowOffsetY="-1.97279" v:shadowType="1"
					transform="matrix(1,0,0,1,0.345598,1.97279)" class="st1">
				<path d="M0 582.24 A13.0367 13.0367 0 0 1 26.07 582.24 A13.0367 13.0367 0 1 1 0 582.24 Z" class="st16"/>
			</g>
			<path d="M0 582.24 A13.0367 13.0367 0 0 1 26.07 582.24 A13.0367 13.0367 0 1 1 0 582.24 Z" class="st23"/>
			<text x="9.49" y="586.44" class="st24" v:langID="2057"><v:paragraph v:horizAlign="1"/><v:tabList/>7</text>		</g>
		<g id="shape46-134" v:mID="46" v:groupContext="shape" transform="translate(343.595,-279.902)">
			<title>Circle.46</title>
			<desc>5</desc>
			<v:userDefs>
				<v:ud v:nameU="visVersion" v:val="VT0(15):26"/>
			</v:userDefs>
			<v:textBlock v:margins="rect(4,4,4,4)" v:tabSpace="42.5197"/>
			<v:textRect cx="13.0367" cy="582.239" width="22.82" height="19.555"/>
			<g id="shadow46-135" v:groupContext="shadow" v:shadowOffsetX="0.345598" v:shadowOffsetY="-1.97279" v:shadowType="1"
					transform="matrix(1,0,0,1,0.345598,1.97279)" class="st1">
				<path d="M0 582.24 A13.0367 13.0367 0 0 1 26.07 582.24 A13.0367 13.0367 0 1 1 0 582.24 Z" class="st16"/>
			</g>
			<path d="M0 582.24 A13.0367 13.0367 0 0 1 26.07 582.24 A13.0367 13.0367 0 1 1 0 582.24 Z" class="st23"/>
			<text x="9.49" y="586.44" class="st24" v:langID="2057"><v:paragraph v:horizAlign="1"/><v:tabList/>5</text>		</g>
		<g id="shape47-140" v:mID="47" v:groupContext="shape" transform="translate(418.782,-279.902)">
			<title>Circle.47</title>
			<desc>4</desc>
			<v:userDefs>
				<v:ud v:nameU="visVersion" v:val="VT0(15):26"/>
			</v:userDefs>
			<v:textBlock v:margins="rect(4,4,4,4)" v:tabSpace="42.5197"/>
			<v:textRect cx="13.0367" cy="582.239" width="22.82" height="19.555"/>
			<g id="shadow47-141" v:groupContext="shadow" v:shadowOffsetX="0.345598" v:shadowOffsetY="-1.97279" v:shadowType="1"
					transform="matrix(1,0,0,1,0.345598,1.97279)" class="st1">
				<path d="M0 582.24 A13.0367 13.0367 0 0 1 26.07 582.24 A13.0367 13.0367 0 1 1 0 582.24 Z" class="st16"/>
			</g>
			<path d="M0 582.24 A13.0367 13.0367 0 0 1 26.07 582.24 A13.0367 13.0367 0 1 1 0 582.24 Z" class="st23"/>
			<text x="9.49" y="586.44" class="st24" v:langID="2057"><v:paragraph v:horizAlign="1"/><v:tabList/>4</text>		</g>
		<g id="shape48-146" v:mID="48" v:groupContext="shape" transform="translate(480.531,-279.902)">
			<title>Circle.48</title>
			<desc>3</desc>
			<v:userDefs>
				<v:ud v:nameU="visVersion" v:val="VT0(15):26"/>
			</v:userDefs>
			<v:textBlock v:margins="rect(4,4,4,4)" v:tabSpace="42.5197"/>
			<v:textRect cx="13.0367" cy="582.239" width="22.82" height="19.555"/>
			<g id="shadow48-147" v:groupContext="shadow" v:shadowOffsetX="0.345598" v:shadowOffsetY="-1.97279" v:shadowType="1"
					transform="matrix(1,0,0,1,0.345598,1.97279)" class="st1">
				<path d="M0 582.24 A13.0367 13.0367 0 0 1 26.07 582.24 A13.0367 13.0367 0 1 1 0 582.24 Z" class="st16"/>
			</g>
			<path d="M0 582.24 A13.0367 13.0367 0 0 1 26.07 582.24 A13.0367 13.0367 0 1 1 0 582.24 Z" class="st23"/>
			<text x="9.49" y="586.44" class="st24" v:langID="2057"><v:paragraph v:horizAlign="1"/><v:tabList/>3</text>		</g>
		<g id="shape49-152" v:mID="49" v:groupContext="shape" transform="translate(546.844,-279.902)">
			<title>Circle.49</title>
			<desc>2</desc>
			<v:userDefs>
				<v:ud v:nameU="visVersion" v:val="VT0(15):26"/>
			</v:userDefs>
			<v:textBlock v:margins="rect(4,4,4,4)" v:tabSpace="42.5197"/>
			<v:textRect cx="13.0367" cy="582.239" width="22.82" height="19.555"/>
			<g id="shadow49-153" v:groupContext="shadow" v:shadowOffsetX="0.345598" v:shadowOffsetY="-1.97279" v:shadowType="1"
					transform="matrix(1,0,0,1,0.345598,1.97279)" class="st1">
				<path d="M0 582.24 A13.0367 13.0367 0 0 1 26.07 582.24 A13.0367 13.0367 0 1 1 0 582.24 Z" class="st16"/>
			</g>
			<path d="M0 582.24 A13.0367 13.0367 0 0 1 26.07 582.24 A13.0367 13.0367 0 1 1 0 582.24 Z" class="st23"/>
			<text x="9.49" y="586.44" class="st24" v:langID="2057"><v:paragraph v:horizAlign="1"/><v:tabList/>2</text>		</g>
	</g>
</svg>
