<?xml version="1.0" encoding="UTF-8" standalone="no"?>
<!DOCTYPE svg PUBLIC "-//W3C//DTD SVG 1.1//EN" "http://www.w3.org/Graphics/SVG/1.1/DTD/svg11.dtd">
<!-- Generated by Microsoft Visio, SVG Export spring-Kafka-integration-with-kerberos-authentication-sm.svg Page-1 -->
<svg xmlns="http://www.w3.org/2000/svg" xmlns:xlink="http://www.w3.org/1999/xlink" xmlns:ev="http://www.w3.org/2001/xml-events"
		xmlns:v="http://schemas.microsoft.com/visio/2003/SVGExtensions/" width="8.06662in" height="2.64143in"
		viewBox="0 0 580.797 190.183" xml:space="preserve" color-interpolation-filters="sRGB" class="st15">
	<v:documentProperties v:langID="2057" v:metric="true" v:viewMarkup="false">
		<v:userDefs>
			<v:ud v:nameU="msvNoAutoConnect" v:val="VT0(1):26"/>
		</v:userDefs>
	</v:documentProperties>

	<style type="text/css">
	<![CDATA[
		.st1 {fill:#ffd965;stroke:none;stroke-linecap:round;stroke-linejoin:round;stroke-width:0.24}
		.st2 {fill:#f2f2f2;stroke:#bfbfbf;stroke-dasharray:3.6,2.16;stroke-linecap:round;stroke-linejoin:round;stroke-width:0.24}
		.st3 {fill:#dbeef3;stroke:#31859b;stroke-linecap:round;stroke-linejoin:round;stroke-width:2.25}
		.st4 {fill:#000000;font-family:Calibri;font-size:0.833336em}
		.st5 {fill:#ebf1df;stroke:#c4d6a0;stroke-linecap:round;stroke-linejoin:round;stroke-width:2.25}
		.st6 {fill:#ffd965;stroke:#000000;stroke-linecap:round;stroke-linejoin:round;stroke-width:4.5}
		.st7 {stroke:#000000;stroke-linecap:round;stroke-linejoin:round;stroke-width:4.5}
		.st8 {stroke:#000000;stroke-linecap:round;stroke-linejoin:round;stroke-width:2.25}
		.st9 {fill:#7e649e}
		.st10 {stroke:#e5b9b5;stroke-linecap:round;stroke-linejoin:round;stroke-width:2.25}
		.st11 {fill:#ff6600;stroke:#000000;stroke-linecap:round;stroke-linejoin:round;stroke-width:0.75}
		.st12 {stroke:#000000;stroke-linecap:round;stroke-linejoin:round;stroke-width:0.75}
		.st13 {fill:none;stroke:none;stroke-linecap:round;stroke-linejoin:round;stroke-width:0.75}
		.st14 {fill:#789440;font-family:Berlin Sans FB Demi;font-size:2.50001em;font-weight:bold}
		.st15 {fill:none;fill-rule:evenodd;font-size:12px;overflow:visible;stroke-linecap:square;stroke-miterlimit:3}
	]]>
	</style>

	<g v:mID="0" v:index="1" v:groupContext="foregroundPage">
		<title>Page-1</title>
		<v:pageProperties v:drawingScale="0.0393701" v:pageScale="0.0393701" v:drawingUnits="24" v:shadowOffsetX="8.50394"
				v:shadowOffsetY="-8.50394"/>
		<g id="group85-1" transform="translate(18.1198,-61.6615)" v:mID="85" v:groupContext="group">
			<title>Sheet.85</title>
			<g id="shape57-2" v:mID="57" v:groupContext="shape" transform="translate(220.672,-8.90438)">
				<title>Decagon</title>
				<v:userDefs>
					<v:ud v:nameU="visVersion" v:prompt="" v:val="VT0(15):26"/>
				</v:userDefs>
				<path d="M93.83 143.89 L84.87 172.5 L61.41 190.18 L32.42 190.18 L8.96 172.5 L0 143.89 L8.96 115.27 L32.42 97.59 L61.41
							 97.59 L84.87 115.27 L93.83 143.89 Z" class="st1"/>
			</g>
			<g id="shape58-4" v:mID="58" v:groupContext="shape">
				<title>Rounded Rectangle</title>
				<v:userDefs>
					<v:ud v:nameU="CTypeTopLeftSnip" v:prompt="" v:val="VT0(0):5"/>
					<v:ud v:nameU="CTypeTopRightSnip" v:prompt="" v:val="VT0(0):5"/>
					<v:ud v:nameU="CTypeBotLeftSnip" v:prompt="" v:val="VT0(0):5"/>
					<v:ud v:nameU="CTypeBotRightSnip" v:prompt="" v:val="VT0(0):5"/>
					<v:ud v:nameU="CornerLockHoriz" v:prompt="" v:val="VT0(1):5"/>
					<v:ud v:nameU="CornerLockVert" v:prompt="" v:val="VT0(1):5"/>
					<v:ud v:nameU="CornerLockDiag" v:prompt="" v:val="VT0(0):5"/>
					<v:ud v:nameU="TopLeftOffset" v:prompt="" v:val="VT0(0.15748031496063):24"/>
					<v:ud v:nameU="TopRightOffset" v:prompt="" v:val="VT0(0.15748031496063):24"/>
					<v:ud v:nameU="BotLeftOffset" v:prompt="" v:val="VT0(0.15748031496063):24"/>
					<v:ud v:nameU="BotRightOffset" v:prompt="" v:val="VT0(0.15748031496063):24"/>
					<v:ud v:nameU="visVersion" v:prompt="" v:val="VT0(15):26"/>
					<v:ud v:nameU="TopLeftOffset" v:prompt="" v:val="VT0(0.19548325872935):1"/>
					<v:ud v:nameU="TopRightOffset" v:prompt="" v:val="VT0(0.19548325872935):1"/>
					<v:ud v:nameU="BotLeftOffset" v:prompt="" v:val="VT0(0.19548325872935):1"/>
					<v:ud v:nameU="BotRightOffset" v:prompt="" v:val="VT0(0.19548325872935):1"/>
				</v:userDefs>
				<path d="M14.07 190.18 L126.67 190.18 A14.0746 14.0746 -180 0 0 140.75 176.11 L140.75 93.86 A14.0746 14.0746 -180
							 0 0 126.67 79.78 L14.07 79.78 A14.0746 14.0746 -180 0 0 0 93.86 L0 176.11 A14.0746 14.0746 -180 0 0
							 14.07 190.18 Z" class="st2"/>
			</g>
			<g id="shape59-6" v:mID="59" v:groupContext="shape" transform="translate(25.6007,-30.1288)">
				<title>Square.16</title>
				<v:userDefs>
					<v:ud v:nameU="visVersion" v:val="VT0(15):26"/>
				</v:userDefs>
				<rect x="0" y="130.723" width="60.2554" height="59.4597" class="st3"/>
			</g>
			<g id="shape60-8" v:mID="60" v:groupContext="shape" transform="translate(33.8316,-22.9866)">
				<title>Square.17</title>
				<v:userDefs>
					<v:ud v:nameU="visVersion" v:val="VT0(15):26"/>
				</v:userDefs>
				<rect x="0" y="130.723" width="60.2554" height="59.4597" class="st3"/>
			</g>
			<g id="shape61-10" v:mID="61" v:groupContext="shape" transform="translate(42.7155,-16.1622)">
				<title>Square.18</title>
				<desc>Producers</desc>
				<v:userDefs>
					<v:ud v:nameU="visVersion" v:val="VT0(15):26"/>
				</v:userDefs>
				<v:textBlock v:margins="rect(4,4,4,4)" v:tabSpace="42.5197"/>
				<v:textRect cx="30.1277" cy="160.453" width="60.26" height="59.4597"/>
				<rect x="0" y="130.723" width="60.2554" height="59.4597" class="st3"/>
				<text x="9.61" y="163.45" class="st4" v:langID="2057"><v:paragraph v:horizAlign="1"/><v:tabList/>Producers</text>			</g>
			<g id="shape62-13" v:mID="62" v:groupContext="shape" transform="translate(403.809,2.84217E-014)">
				<title>Rounded Rectangle.25</title>
				<v:userDefs>
					<v:ud v:nameU="CTypeTopLeftSnip" v:prompt="" v:val="VT0(0):5"/>
					<v:ud v:nameU="CTypeTopRightSnip" v:prompt="" v:val="VT0(0):5"/>
					<v:ud v:nameU="CTypeBotLeftSnip" v:prompt="" v:val="VT0(0):5"/>
					<v:ud v:nameU="CTypeBotRightSnip" v:prompt="" v:val="VT0(0):5"/>
					<v:ud v:nameU="CornerLockHoriz" v:prompt="" v:val="VT0(1):5"/>
					<v:ud v:nameU="CornerLockVert" v:prompt="" v:val="VT0(1):5"/>
					<v:ud v:nameU="CornerLockDiag" v:prompt="" v:val="VT0(0):5"/>
					<v:ud v:nameU="TopLeftOffset" v:prompt="" v:val="VT0(0.15748031496063):24"/>
					<v:ud v:nameU="TopRightOffset" v:prompt="" v:val="VT0(0.15748031496063):24"/>
					<v:ud v:nameU="BotLeftOffset" v:prompt="" v:val="VT0(0.15748031496063):24"/>
					<v:ud v:nameU="BotRightOffset" v:prompt="" v:val="VT0(0.15748031496063):24"/>
					<v:ud v:nameU="visVersion" v:prompt="" v:val="VT0(15):26"/>
					<v:ud v:nameU="TopLeftOffset" v:prompt="" v:val="VT0(0.19548325872935):1"/>
					<v:ud v:nameU="TopRightOffset" v:prompt="" v:val="VT0(0.19548325872935):1"/>
					<v:ud v:nameU="BotLeftOffset" v:prompt="" v:val="VT0(0.19548325872935):1"/>
					<v:ud v:nameU="BotRightOffset" v:prompt="" v:val="VT0(0.19548325872935):1"/>
				</v:userDefs>
				<path d="M14.07 190.18 L126.67 190.18 A14.0746 14.0746 -180 0 0 140.75 176.11 L140.75 93.86 A14.0746 14.0746 -180
							 0 0 126.67 79.78 L14.07 79.78 A14.0746 14.0746 -180 0 0 0 93.86 L0 176.11 A14.0746 14.0746 -180 0 0
							 14.07 190.18 Z" class="st2"/>
			</g>
			<g id="shape63-15" v:mID="63" v:groupContext="shape" transform="translate(429.41,-30.1288)">
				<title>Square.26</title>
				<v:userDefs>
					<v:ud v:nameU="visVersion" v:val="VT0(15):26"/>
				</v:userDefs>
				<rect x="0" y="130.723" width="60.2554" height="59.4597" class="st5"/>
			</g>
			<g id="shape64-17" v:mID="64" v:groupContext="shape" transform="translate(437.641,-22.9866)">
				<title>Square.27</title>
				<v:userDefs>
					<v:ud v:nameU="visVersion" v:val="VT0(15):26"/>
				</v:userDefs>
				<rect x="0" y="130.723" width="60.2554" height="59.4597" class="st5"/>
			</g>
			<g id="shape65-19" v:mID="65" v:groupContext="shape" transform="translate(446.525,-16.1622)">
				<title>Square.28</title>
				<desc>Consumers</desc>
				<v:userDefs>
					<v:ud v:nameU="visVersion" v:val="VT0(15):26"/>
				</v:userDefs>
				<v:textBlock v:margins="rect(4,4,4,4)" v:tabSpace="42.5197"/>
				<v:textRect cx="30.1277" cy="160.453" width="60.26" height="59.4597"/>
				<rect x="0" y="130.723" width="60.2554" height="59.4597" class="st5"/>
				<text x="7.43" y="163.45" class="st4" v:langID="2057"><v:paragraph v:horizAlign="1"/><v:tabList/>Consumers</text>			</g>
			<g id="group66-22" transform="translate(253.596,-25.6941)" v:mID="66" v:groupContext="group">
				<title>Sheet.66</title>
				<g id="shape67-23" v:mID="67" v:groupContext="shape" transform="translate(2.41757,-44.4326)">
					<title>Circle</title>
					<v:userDefs>
						<v:ud v:nameU="visVersion" v:val="VT0(15):26"/>
					</v:userDefs>
					<path d="M0 184.52 A5.74173 5.6659 0 1 1 11.48 184.52 A5.74173 5.6659 0 1 1 0 184.52 Z" class="st6"/>
				</g>
				<g id="shape68-25" v:mID="68" v:groupContext="shape" transform="translate(0,-20.1289)">
					<title>Circle.2</title>
					<v:userDefs>
						<v:ud v:nameU="visVersion" v:val="VT0(15):26"/>
					</v:userDefs>
					<path d="M0 182.43 A7.8571 7.75334 0 1 1 15.71 182.43 A7.8571 7.75334 0 0 1 0 182.43 Z" class="st6"/>
				</g>
				<g id="shape69-27" v:mID="69" v:groupContext="shape" transform="translate(18.7362,-34.2936)">
					<title>Circle.3</title>
					<v:userDefs>
						<v:ud v:nameU="visVersion" v:val="VT0(15):26"/>
					</v:userDefs>
					<path d="M0 184.52 A5.74173 5.6659 0 1 1 11.48 184.52 A5.74173 5.6659 0 1 1 0 184.52 Z" class="st6"/>
				</g>
				<g id="shape70-29" v:mID="70" v:groupContext="shape" transform="translate(19.7939,-12.0028)">
					<title>Circle.4</title>
					<v:userDefs>
						<v:ud v:nameU="visVersion" v:val="VT0(15):26"/>
					</v:userDefs>
					<path d="M0 184.52 A5.74173 5.6659 0 1 1 11.48 184.52 A5.74173 5.6659 0 1 1 0 184.52 Z" class="st6"/>
				</g>
				<g id="shape71-31" v:mID="71" v:groupContext="shape" transform="translate(2.41757,-2.55795E-013)">
					<title>Circle.5</title>
					<v:userDefs>
						<v:ud v:nameU="visVersion" v:val="VT0(15):26"/>
					</v:userDefs>
					<path d="M0 184.52 A5.74173 5.6659 0 1 1 11.48 184.52 A5.74173 5.6659 0 1 1 0 184.52 Z" class="st6"/>
				</g>
				<g id="shape72-33" v:mID="72" v:groupContext="shape" transform="translate(198.23,152.28) rotate(91.9674)">
					<title>Sheet.72</title>
					<path d="M0 190.18 L8.8 190.18" class="st7"/>
				</g>
				<g id="shape73-36" v:mID="73" v:groupContext="shape" transform="translate(-181.912,185.381) rotate(-91.9674)">
					<title>Sheet.73</title>
					<path d="M0 190.18 L8.8 190.18" class="st7"/>
				</g>
				<g id="shape74-39" v:mID="74" v:groupContext="shape" transform="translate(-52.4888,-21.582) rotate(-20.2747)">
					<title>Sheet.74</title>
					<path d="M0 190.18 L7.47 190.18" class="st7"/>
				</g>
				<g id="shape75-42" v:mID="75" v:groupContext="shape" transform="translate(126.682,15.0102) rotate(36.5537)">
					<title>Sheet.75</title>
					<path d="M0 190.18 L7.94 190.18" class="st7"/>
				</g>
			</g>
			<g id="shape76-45" v:mID="76" v:groupContext="shape" transform="translate(314.504,-55.2008)">
				<title>Sheet.76</title>
				<path d="M0 190.18 L89.3 190.18" class="st8"/>
			</g>
			<g id="shape77-48" v:mID="77" v:groupContext="shape" transform="translate(140.748,-55.2008)">
				<title>Sheet.77</title>
				<path d="M0 190.18 L79.92 190.18" class="st8"/>
			</g>
			<g id="group78-51" transform="translate(171.287,-45.8921)" v:mID="78" v:groupContext="group">
				<v:custProps>
					<v:cp v:nameU="ShapeClass" v:lbl="ShapeClass" v:prompt="" v:type="0" v:format="" v:sortKey="" v:invis="true"
							v:ask="false" v:langID="1033" v:cal="0" v:val="VT4(Security)"/>
					<v:cp v:nameU="ShapeType" v:lbl="ShapeType" v:prompt="" v:type="0" v:format="" v:sortKey="" v:invis="true"
							v:ask="false" v:langID="1033" v:cal="0" v:val="VT4(Conceptual)"/>
					<v:cp v:nameU="SubShapeType" v:lbl="SubShapeType" v:prompt="" v:type="0" v:format="" v:sortKey=""
							v:invis="true" v:ask="false" v:langID="1033" v:cal="0" v:val="VT4(Key)"/>
				</v:custProps>
				<v:userDefs>
					<v:ud v:nameU="visVersion" v:prompt="" v:val="VT0(15):26"/>
					<v:ud v:nameU="ShapeClass" v:prompt="" v:val="VT0(5):26"/>
					<v:ud v:nameU="SolSH" v:prompt="" v:val="VT15({BF0433D9-CD73-4EB5-8390-8653BE590246}):41"/>
					<v:ud v:nameU="visLegendShape" v:prompt="" v:val="VT0(2):26"/>
				</v:userDefs>
				<title>Key</title>
				<g id="shape79-52" v:mID="79" v:groupContext="shape" transform="translate(9.03694,2.84217E-014)">
					<title>Sheet.79</title>
					<path d="M13.2 171.95 C13.2 169.25 10.25 167.07 6.6 167.07 C2.96 167.07 0 169.25 0 171.95 C0 174.07 1.84 175.87
								 4.4 176.54 L4.4 188.92 L6.63 190.18 L8.8 188.92 L8.8 187.62 L9.39 187.62 L9.39 185.52 L8.76 185.15
								 L8.76 184.3 L9.39 184.19 L9.39 182.91 L8.68 182.33 L9.39 181.97 L9.39 180.89 L8.76 180.73 L8.71
								 179.43 L9.39 179.29 L9.39 177.91 L8.8 177.65 L8.8 176.54 C11.36 175.87 13.2 174.07 13.2 171.95 ZM7.43
								 168.63 a0.704248 0.520494 -180 1 0 -1.4085 0 a0.704248 0.520494 -180 1 0 1.4085 0 Z" class="st9"/>
					<path d="M13.2 171.95 C13.2 169.25 10.25 167.07 6.6 167.07 C2.96 167.07 0 169.25 0 171.95 C0 174.07 1.84 175.87
								 4.4 176.54 L4.4 188.92 L6.63 190.18 L8.8 188.92 L8.8 187.62 L9.39 187.62 L9.39 185.52 L8.76 185.15
								 L8.76 184.3 L9.39 184.19 L9.39 182.91 L8.68 182.33 L9.39 181.97 L9.39 180.89 L8.76 180.73 L8.71
								 179.43 L9.39 179.29 L9.39 177.91 L8.8 177.65 L8.8 176.54 C11.36 175.87 13.2 174.07 13.2 171.95"
							class="st10"/>
					<path d="M5.76 176.7 L5.76 188.47" class="st10"/>
					<path d="M7.43 168.63 a0.704248 0.520494 -180 1 0 -1.4085 0 a0.704248 0.520494 -180 1 0 1.4085 0" class="st10"/>
				</g>
			</g>
			<g id="group80-57" transform="translate(270.881,-18.5495)" v:mID="80" v:groupContext="group">
				<v:custProps>
					<v:cp v:nameU="ShapeClass" v:lbl="ShapeClass" v:prompt="" v:type="0" v:format="" v:sortKey="" v:invis="true"
							v:ask="false" v:langID="1033" v:cal="0" v:val="VT4(Security)"/>
					<v:cp v:nameU="ShapeType" v:lbl="ShapeType" v:prompt="" v:type="0" v:format="" v:sortKey="" v:invis="true"
							v:ask="false" v:langID="1033" v:cal="0" v:val="VT4(Conceptual)"/>
					<v:cp v:nameU="SubShapeType" v:lbl="SubShapeType" v:prompt="" v:type="0" v:format="" v:sortKey=""
							v:invis="true" v:ask="false" v:langID="1033" v:cal="0" v:val="VT4(Lock)"/>
				</v:custProps>
				<v:userDefs>
					<v:ud v:nameU="visVersion" v:prompt="" v:val="VT0(15):26"/>
					<v:ud v:nameU="ShapeClass" v:prompt="" v:val="VT0(5):26"/>
					<v:ud v:nameU="SolSH" v:prompt="" v:val="VT15({BF0433D9-CD73-4EB5-8390-8653BE590246}):41"/>
					<v:ud v:nameU="visLegendShape" v:prompt="" v:val="VT0(2):26"/>
				</v:userDefs>
				<title>Lock</title>
				<g id="shape81-58" v:mID="81" v:groupContext="shape" transform="translate(1.44826,2.84217E-014)">
					<title>Sheet.81</title>
					<path d="M2.54 182.78 L2.54 181.28 C2.54 180.89 2.65 180.53 2.83 180.23 C3.02 179.91 3.28 179.66 3.6 179.5 C3.84
								 179.37 4.12 179.3 4.42 179.3 C4.71 179.3 4.98 179.37 5.23 179.5 C5.54 179.66 5.81 179.9 6 180.21
								 C6.18 180.52 6.29 180.89 6.29 181.28 L6.29 182.78 L2.54 182.78 ZM8.71 182.78 L6.99 182.78 L6.99
								 181.28 C6.99 180.76 6.85 180.27 6.6 179.86 C6.34 179.44 5.98 179.1 5.55 178.88 C5.21 178.71 4.82
								 178.61 4.42 178.61 C4.01 178.61 3.62 178.71 3.27 178.89 C2.84 179.11 2.48 179.45 2.22 179.87 C1.98
								 180.28 1.84 180.77 1.84 181.28 L1.84 182.78 L0.12 182.78 C0.05 182.78 0 182.83 0 182.89 L0 190.07
								 C0 190.13 0.05 190.18 0.12 190.18 L8.71 190.18 C8.78 190.18 8.83 190.13 8.83 190.07 L8.83 182.89
								 C8.83 182.83 8.78 182.78 8.71 182.78 Z" class="st11"/>
				</g>
				<g id="shape82-60" v:mID="82" v:groupContext="shape" transform="translate(3.48011,-3.70949)">
					<title>Sheet.82</title>
					<path d="M0 188.84 L4.75 188.84" class="st12"/>
					<path d="M0 190.18 L4.75 190.18" class="st12"/>
				</g>
			</g>
			<g id="group83-64" transform="translate(333.435,-43.6426)" v:mID="83" v:groupContext="group">
				<v:custProps>
					<v:cp v:nameU="ShapeClass" v:lbl="ShapeClass" v:prompt="" v:type="0" v:format="" v:sortKey="" v:invis="true"
							v:ask="false" v:langID="1033" v:cal="0" v:val="VT4(Security)"/>
					<v:cp v:nameU="ShapeType" v:lbl="ShapeType" v:prompt="" v:type="0" v:format="" v:sortKey="" v:invis="true"
							v:ask="false" v:langID="1033" v:cal="0" v:val="VT4(Conceptual)"/>
					<v:cp v:nameU="SubShapeType" v:lbl="SubShapeType" v:prompt="" v:type="0" v:format="" v:sortKey=""
							v:invis="true" v:ask="false" v:langID="1033" v:cal="0" v:val="VT4(Key)"/>
				</v:custProps>
				<v:userDefs>
					<v:ud v:nameU="visVersion" v:prompt="" v:val="VT0(15):26"/>
					<v:ud v:nameU="ShapeClass" v:prompt="" v:val="VT0(5):26"/>
					<v:ud v:nameU="SolSH" v:prompt="" v:val="VT15({BF0433D9-CD73-4EB5-8390-8653BE590246}):41"/>
					<v:ud v:nameU="visLegendShape" v:prompt="" v:val="VT0(2):26"/>
				</v:userDefs>
				<title>Key.45</title>
				<g id="shape84-65" v:mID="84" v:groupContext="shape" transform="translate(9.03694,2.84217E-014)">
					<title>Sheet.84</title>
					<path d="M13.2 171.95 C13.2 169.25 10.25 167.07 6.6 167.07 C2.96 167.07 0 169.25 0 171.95 C0 174.07 1.84 175.87
								 4.4 176.54 L4.4 188.92 L6.63 190.18 L8.8 188.92 L8.8 187.62 L9.39 187.62 L9.39 185.52 L8.76 185.15
								 L8.76 184.3 L9.39 184.19 L9.39 182.91 L8.68 182.33 L9.39 181.97 L9.39 180.89 L8.76 180.73 L8.71
								 179.43 L9.39 179.29 L9.39 177.91 L8.8 177.65 L8.8 176.54 C11.36 175.87 13.2 174.07 13.2 171.95 ZM7.43
								 168.63 a0.704248 0.520494 -180 1 0 -1.4085 0 a0.704248 0.520494 -180 1 0 1.4085 0 Z" class="st9"/>
					<path d="M13.2 171.95 C13.2 169.25 10.25 167.07 6.6 167.07 C2.96 167.07 0 169.25 0 171.95 C0 174.07 1.84 175.87
								 4.4 176.54 L4.4 188.92 L6.63 190.18 L8.8 188.92 L8.8 187.62 L9.39 187.62 L9.39 185.52 L8.76 185.15
								 L8.76 184.3 L9.39 184.19 L9.39 182.91 L8.68 182.33 L9.39 181.97 L9.39 180.89 L8.76 180.73 L8.71
								 179.43 L9.39 179.29 L9.39 177.91 L8.8 177.65 L8.8 176.54 C11.36 175.87 13.2 174.07 13.2 171.95"
							class="st10"/>
					<path d="M5.76 176.7 L5.76 188.47" class="st10"/>
					<path d="M7.43 168.63 a0.704248 0.520494 -180 1 0 -1.4085 0 a0.704248 0.520494 -180 1 0 1.4085 0" class="st10"/>
				</g>
			</g>
		</g>
		<g id="shape86-70" v:mID="86" v:groupContext="shape" transform="translate(50.9853,-18.375)">
			<title>Sheet.86</title>
			<desc>Kafka with Kerberos authentication</desc>
			<v:textBlock v:margins="rect(4,4,4,4)" v:tabSpace="42.5197"/>
			<v:textRect cx="246.652" cy="171.775" width="493.31" height="36.8159"/>
			<rect x="0" y="153.367" width="493.305" height="36.8159" class="st13"/>
			<text x="6.7" y="180.78" class="st14" v:langID="2057"><v:paragraph v:horizAlign="1"/><v:tabList/>Kafka with Kerberos authentication</text>		</g>
	</g>
</svg>
